<mxfile host="app.diagrams.net" modified="2020-06-19T07:25:54.727Z" agent="5.0 (Macintosh; Intel Mac OS X 10_15_4) AppleWebKit/537.36 (KHTML, like Gecko) Chrome/83.0.4103.97 Safari/537.36" etag="MWsgNAKH5bwTT4hSN0Av" version="13.2.6" type="github">
  <diagram id="tQY2FuyDKoO8Y7laVkCO" name="第 1 页">
    <mxGraphModel dx="1186" dy="773" grid="0" gridSize="10" guides="1" tooltips="1" connect="1" arrows="1" fold="1" page="0" pageScale="1" pageWidth="4681" pageHeight="3300" background="#FAFAFA" math="0" shadow="0">
      <root>
        <mxCell id="0" />
        <mxCell id="1" parent="0" />
      </root>
    </mxGraphModel>
  </diagram>
</mxfile>
